<svg width="114" height="101" viewBox="0 0 114 101" fill="none" xmlns="http://www.w3.org/2000/svg">
    <g id = 'react'>
        <g clip-path="url(#clip0_13_2986)">
            <path d="M93.1056 32.7027C91.9031 32.2887 90.6904 31.9051 89.4687 31.5523C89.6739 30.7106 89.8628 29.8792 90.0305 29.0623C92.7838 15.6483 90.9839 4.84178 84.8361 1.28375C78.9416 -2.12722 69.3016 1.42949 59.5659 9.93342C58.6064 10.773 57.6682 11.6368 56.7521 12.524C56.1389 11.934 55.5149 11.3556 54.8803 10.7888C44.6767 1.69616 34.4493 -2.13608 28.3081 1.43215C22.4189 4.85374 20.675 15.0127 23.1538 27.7254C23.4004 28.9844 23.6788 30.237 23.9888 31.4819C22.5411 31.8947 21.1442 32.3342 19.8073 32.8019C7.84441 36.9881 0.204742 43.5483 0.204742 50.3529C0.204742 57.3808 8.40627 64.43 20.8661 68.7043C21.8763 69.0495 22.8948 69.3692 23.9209 69.6634C23.5876 71.0042 23.2918 72.354 23.0337 73.7114C20.6706 86.2035 22.516 96.1223 28.3893 99.5222C34.4555 103.033 44.637 99.4247 54.5506 90.7268C55.3545 90.0196 56.1407 89.2925 56.9084 88.546C57.9004 89.5066 58.9189 90.4393 59.9627 91.343C69.566 99.6365 79.0501 102.985 84.9177 99.5762C90.9782 96.055 92.948 85.3995 90.3907 72.4356C90.1892 71.42 89.9633 70.4094 89.7132 69.4047C90.4282 69.1921 91.13 68.9732 91.8141 68.7455C104.767 64.4384 113.195 57.4747 113.195 50.3529C113.195 43.5234 105.309 36.919 93.1056 32.7027ZM90.2962 64.1474C89.6783 64.3525 89.0445 64.5505 88.3983 64.7432C86.9683 60.1995 85.0386 55.3684 82.6769 50.3764C84.9305 45.5036 86.786 40.734 88.1759 36.22C89.3318 36.5558 90.4534 36.9097 91.5347 37.2832C101.991 40.8961 108.369 46.2372 108.369 50.3529C108.369 54.7367 101.481 60.4277 90.2962 64.1474ZM85.6557 73.3765C86.7865 79.1087 86.9476 84.2916 86.1986 88.3435C85.5259 91.9844 84.1727 94.4115 82.499 95.3839C78.9385 97.4526 71.3235 94.7637 63.111 87.6706C62.1401 86.8305 61.1927 85.9634 60.2699 85.0703C63.4539 81.5756 66.6357 77.5131 69.7412 73.0008C75.2036 72.5144 80.3641 71.7188 85.0439 70.6331C85.2694 71.5426 85.4734 72.4573 85.6557 73.3765ZM38.7257 95.0264C35.2468 96.2592 32.4759 96.2946 30.8009 95.3254C27.2369 93.2624 25.7552 85.298 27.7762 74.6151C28.0165 73.3527 28.2915 72.0972 28.6011 70.8502C33.2293 71.8779 38.3523 72.6168 43.8275 73.0624C46.9542 77.4776 50.2278 81.5358 53.5271 85.0894C52.8259 85.7703 52.1082 86.4338 51.3745 87.0793C46.9904 90.9252 42.5974 93.654 38.7257 95.0264ZM22.4277 64.1204C16.9181 62.2302 12.368 59.7738 9.24929 57.0933C6.44659 54.6848 5.032 52.2932 5.032 50.3529C5.032 46.2234 11.1657 40.9564 21.3962 37.3766C22.6378 36.9425 23.9372 36.5327 25.2856 36.1482C26.6997 40.7641 28.5544 45.5904 30.7925 50.4707C28.5252 55.4233 26.6441 60.3267 25.2163 64.997C24.2797 64.7278 23.3499 64.4355 22.4277 64.1204ZM27.891 26.7947C25.7676 15.9031 27.1777 7.68706 30.7268 5.62497C34.5067 3.42867 42.8653 6.56011 51.6755 14.4115C52.25 14.9247 52.8152 15.4482 53.3708 15.9819C50.0879 19.52 46.8443 23.548 43.7454 27.9371C38.4313 28.4315 33.3445 29.2253 28.6678 30.2889C28.3797 29.131 28.1206 27.9661 27.891 26.7951V26.7947ZM76.6301 38.8739C75.5255 36.9589 74.3798 35.0679 73.194 33.2024C76.7991 33.66 80.2533 34.2673 83.4969 35.0098C82.5233 38.1425 81.3095 41.4175 79.8808 44.7753C78.8365 42.7867 77.7527 40.8191 76.6301 38.8739ZM56.7544 19.4443C58.9806 21.8652 61.2104 24.5678 63.4036 27.5003C58.9546 27.2894 54.4982 27.2886 50.0491 27.4977C52.2444 24.5922 54.4932 21.8931 56.7544 19.4443ZM36.751 38.9071C35.6425 40.8367 34.5789 42.792 33.5613 44.7713C32.1559 41.4255 30.9532 38.1355 29.9712 34.9584C33.1949 34.2346 36.6327 33.6427 40.2149 33.1935C39.0159 35.0704 37.8609 36.9754 36.751 38.9067V38.9071ZM40.3177 67.8569C36.6169 67.4423 33.1274 66.881 29.9045 66.1767C30.902 62.9429 32.1312 59.5829 33.567 56.1653C34.5887 58.1461 35.6567 60.1026 36.77 62.033C37.9149 64.0176 39.1004 65.9614 40.3177 67.8569ZM56.8876 81.6027C54.5996 79.1255 52.3177 76.3848 50.0892 73.4372C52.2528 73.5222 54.4583 73.5656 56.7001 73.5656C59.0031 73.5656 61.2797 73.5138 63.5205 73.4137C61.3203 76.4145 59.0989 79.1592 56.8876 81.6027ZM79.9263 55.9907C81.4366 59.446 82.7095 62.7883 83.7203 65.9667C80.4444 66.7171 76.9073 67.3214 73.1804 67.7701C74.3746 65.8699 75.5311 63.9461 76.6491 61.9998C77.7858 60.0214 78.8784 58.0179 79.9263 55.9907ZM72.468 59.5794C70.7564 62.5634 68.9487 65.4909 67.0475 68.357C63.6038 68.6018 60.1524 68.7234 56.7001 68.7216C53.1837 68.7216 49.7635 68.6118 46.47 68.3974C44.5192 65.5378 42.677 62.6053 40.9471 59.6059H40.9476C39.2259 56.6225 37.6177 53.5745 36.1265 50.4685C37.6139 47.3618 39.2172 44.3124 40.933 41.3267L40.9326 41.3271C42.6477 38.3407 44.4753 35.4206 46.4113 32.5734C49.7714 32.3182 53.2172 32.1853 56.6996 32.1853H56.7001C60.1984 32.1853 63.6485 32.3195 67.0078 32.5765C68.9243 35.4195 70.7402 38.3295 72.4521 41.301C74.1736 44.2801 75.7981 47.3147 77.3231 50.3999C75.8138 53.5166 74.1944 56.5783 72.468 59.5794ZM82.4253 5.48056C86.2087 7.67067 87.6802 16.5024 85.303 28.0842C85.1512 28.8231 84.9808 29.5757 84.7954 30.339C80.1072 29.2528 75.0169 28.4452 69.6874 27.9433C66.5828 23.506 63.3656 19.4717 60.1361 15.9792C60.9825 15.1604 61.849 14.3628 62.7349 13.5871C71.0768 6.30141 78.8732 3.42468 82.4253 5.48056ZM56.7001 40.2263C62.2724 40.2263 66.7898 44.7603 66.7898 50.3529C66.7898 55.9456 62.2724 60.4795 56.7001 60.4795C51.1278 60.4795 46.6104 55.9456 46.6104 50.3529C46.6104 44.7603 51.1278 40.2263 56.7001 40.2263Z" fill="#00D8FF"/>
        </g>
        <defs>
            <clipPath id="clip0_13_2986">
                <rect width="113" height="101" fill="white" transform="translate(0.200012)"/>
            </clipPath>
        </defs>
    </g>

    <g id = 'js'>
        <path d="M8.11639 7.5H113.116V112.5H8.11639V7.5Z" fill="#F5DE19"/>
        <path d="M78.6501 89.5312C79.5448 91.3485 80.9347 92.8759 82.6598 93.9375C84.3848 94.9991 86.3747 95.5515 88.4001 95.5313C92.4876 95.5313 95.1014 93.4875 95.1014 90.6562C95.1014 87.2812 92.4164 86.0738 87.9164 84.105L85.4489 83.0475C78.3239 80.0138 73.5989 76.215 73.5989 68.1825C73.5989 60.7838 79.2239 55.1475 88.0476 55.1475C90.904 54.9412 93.7579 55.5805 96.2534 56.9856C98.7488 58.3907 100.775 60.4994 102.08 63.0488L94.3664 67.98C93.864 66.716 92.9892 65.6345 91.858 64.879C90.7268 64.1236 89.3927 63.7298 88.0326 63.75C87.4392 63.6906 86.84 63.7555 86.273 63.9404C85.7061 64.1254 85.1839 64.4265 84.7397 64.8244C84.2956 65.2224 83.9392 65.7085 83.6932 66.2518C83.4473 66.7951 83.3173 67.3837 83.3114 67.98C83.3114 70.9388 85.1451 72.1388 89.3789 73.98L91.8464 75.0375C100.231 78.6338 104.971 82.2975 104.971 90.5363C104.971 99.42 97.9926 104.287 88.6214 104.287C84.97 104.52 81.3293 103.691 78.1387 101.901C74.948 100.11 72.3438 97.4342 70.6401 94.1963L78.6501 89.5312ZM43.7939 90.3863C45.3426 93.135 46.7526 95.46 50.1426 95.46C53.3826 95.46 55.4301 94.1925 55.4301 89.2612V55.71H65.2964V89.3925C65.2964 99.6075 59.2964 104.257 50.5626 104.257C47.4755 104.426 44.4095 103.657 41.7677 102.051C39.126 100.444 37.0321 98.0761 35.7614 95.2575L43.7939 90.3863Z" fill="black"/>
    </g>

    <g id = 'css'>
        <path d="M22.3653 101.154L13.9428 7.4375H106.523L98.089 101.139L60.1765 111.562L22.3653 101.154Z" fill="#1572B6"/>
        <path d="M60.2328 103.597L90.8703 95.174L98.0778 15.1019H60.2328V103.597Z" fill="#33A9DC"/>
        <path d="M60.2328 49.054H75.5703L76.6278 37.2842H60.2328V25.7896H89.2953L89.0178 28.8724L86.1715 60.5487H60.2328V49.054Z" fill="white"/>
        <path d="M60.304 78.9045L60.2515 78.9193L47.344 75.4609L46.519 66.2942H34.8828L36.5065 84.3413L60.2478 90.8788L60.304 90.864V78.9045Z" fill="#EBEBEB"/>
        <path d="M74.584 60.0615L73.189 75.4534L60.2628 78.9119V90.8714L84.0228 84.3412L84.199 82.4001L86.2128 60.0615H74.584Z" fill="white"/>
        <path d="M60.274 25.7896V37.2842H32.2765L32.044 34.6997L31.5153 28.8724L31.2378 25.7896H60.274ZM60.2328 49.054V60.5487H47.4865L47.254 57.9642L46.729 52.1369L46.4515 49.054H60.2328Z" fill="#EBEBEB"/>
    </g>

    <g id = 'instagram'>

        <path fill-rule="evenodd" clip-rule="evenodd" d="M8.02703 16.5C8.02703 11.8205 11.8205 8.02703 16.5 8.02703C21.1795 8.02703 24.973 11.8205 24.973 16.5C24.973 21.1795 21.1795 24.973 16.5 24.973C11.8205 24.973 8.02703 21.1795 8.02703 16.5ZM16.5 22C13.4624 22 11 19.5376 11 16.5C11 13.4624 13.4624 11 16.5 11C19.5376 11 22 13.4624 22 16.5C22 19.5376 19.5376 22 16.5 22Z" fill="url(#paint0_linear_11_4218)"/>
        <path fill-rule="evenodd" clip-rule="evenodd" d="M8.02703 16.5C8.02703 11.8205 11.8205 8.02703 16.5 8.02703C21.1795 8.02703 24.973 11.8205 24.973 16.5C24.973 21.1795 21.1795 24.973 16.5 24.973C11.8205 24.973 8.02703 21.1795 8.02703 16.5ZM16.5 22C13.4624 22 11 19.5376 11 16.5C11 13.4624 13.4624 11 16.5 11C19.5376 11 22 13.4624 22 16.5C22 19.5376 19.5376 22 16.5 22Z" fill="url(#paint1_radial_11_4218)"/>
        <path d="M25.3077 9.67225C26.4013 9.67225 27.2878 8.78581 27.2878 7.69228C27.2878 6.59874 26.4013 5.71224 25.3077 5.71224C24.2143 5.71224 23.3278 6.59874 23.3278 7.69228C23.3278 8.78581 24.2143 9.67225 25.3077 9.67225Z" fill="url(#paint2_linear_11_4218)"/>
        <path d="M25.3077 9.67225C26.4013 9.67225 27.2878 8.78581 27.2878 7.69228C27.2878 6.59874 26.4013 5.71224 25.3077 5.71224C24.2143 5.71224 23.3278 6.59874 23.3278 7.69228C23.3278 8.78581 24.2143 9.67225 25.3077 9.67225Z" fill="url(#paint3_radial_11_4218)"/>
        <path fill-rule="evenodd" clip-rule="evenodd" d="M16.5 0C12.0189 0 11.457 0.0189941 9.69707 0.0992932C7.94084 0.179396 6.74139 0.458347 5.69187 0.866261C4.60685 1.28786 3.68669 1.85205 2.76934 2.76934C1.85205 3.68669 1.28786 4.60685 0.866261 5.69187C0.458347 6.74139 0.179396 7.94084 0.0992932 9.69707C0.0189941 11.457 0 12.0189 0 16.5C0 20.9811 0.0189941 21.543 0.0992932 23.3029C0.179396 25.0592 0.458347 26.2586 0.866261 27.3081C1.28786 28.3931 1.85205 29.3133 2.76934 30.2307C3.68669 31.1479 4.60685 31.7121 5.69187 32.1338C6.74139 32.5417 7.94084 32.8206 9.69707 32.9007C11.457 32.981 12.0189 33 16.5 33C20.9811 33 21.543 32.981 23.3029 32.9007C25.0592 32.8206 26.2586 32.5417 27.3081 32.1338C28.3931 31.7121 29.3133 31.1479 30.2307 30.2307C31.1479 29.3133 31.7121 28.3931 32.1338 27.3081C32.5417 26.2586 32.8206 25.0592 32.9007 23.3029C32.981 21.543 33 20.9811 33 16.5C33 12.0189 32.981 11.457 32.9007 9.69707C32.8206 7.94084 32.5417 6.74139 32.1338 5.69187C31.7121 4.60685 31.1479 3.68669 30.2307 2.76934C29.3133 1.85205 28.3931 1.28786 27.3081 0.866261C26.2586 0.458347 25.0592 0.179396 23.3029 0.0992932C21.543 0.0189941 20.9811 0 16.5 0ZM16.5 2.97297C20.9057 2.97297 21.4276 2.9898 23.1674 3.06918C24.7762 3.14254 25.6498 3.41134 26.2312 3.6373C27.0014 3.93662 27.5511 4.29417 28.1284 4.87159C28.7058 5.44895 29.0634 5.99859 29.3627 6.76877C29.5887 7.35019 29.8575 8.22385 29.9308 9.83258C30.0102 11.5724 30.027 12.0943 30.027 16.5C30.027 20.9057 30.0102 21.4276 29.9308 23.1674C29.8575 24.7761 29.5887 25.6498 29.3627 26.2312C29.0634 27.0014 28.7058 27.5511 28.1284 28.1284C27.5511 28.7058 27.0014 29.0634 26.2312 29.3627C25.6498 29.5887 24.7762 29.8575 23.1674 29.9308C21.4278 30.0102 20.906 30.027 16.5 30.027C12.094 30.027 11.5723 30.0102 9.83259 29.9308C8.22385 29.8575 7.35019 29.5887 6.76878 29.3627C5.9986 29.0634 5.44895 28.7058 4.87159 28.1284C4.29424 27.5511 3.93663 27.0014 3.63731 26.2312C3.41134 25.6498 3.14254 24.7761 3.06919 23.1674C2.9898 21.4276 2.97297 20.9057 2.97297 16.5C2.97297 12.0943 2.9898 11.5724 3.06919 9.83258C3.14254 8.22385 3.41134 7.35019 3.63731 6.76877C3.93663 5.99859 4.29417 5.44895 4.87159 4.87159C5.44895 4.29417 5.9986 3.93662 6.76878 3.6373C7.35019 3.41134 8.22385 3.14254 9.83259 3.06918C11.5724 2.9898 12.0943 2.97297 16.5 2.97297Z" fill="url(#paint4_linear_11_4218)"/>
        <path fill-rule="evenodd" clip-rule="evenodd" d="M16.5 0C12.0189 0 11.457 0.0189941 9.69707 0.0992932C7.94084 0.179396 6.74139 0.458347 5.69187 0.866261C4.60685 1.28786 3.68669 1.85205 2.76934 2.76934C1.85205 3.68669 1.28786 4.60685 0.866261 5.69187C0.458347 6.74139 0.179396 7.94084 0.0992932 9.69707C0.0189941 11.457 0 12.0189 0 16.5C0 20.9811 0.0189941 21.543 0.0992932 23.3029C0.179396 25.0592 0.458347 26.2586 0.866261 27.3081C1.28786 28.3931 1.85205 29.3133 2.76934 30.2307C3.68669 31.1479 4.60685 31.7121 5.69187 32.1338C6.74139 32.5417 7.94084 32.8206 9.69707 32.9007C11.457 32.981 12.0189 33 16.5 33C20.9811 33 21.543 32.981 23.3029 32.9007C25.0592 32.8206 26.2586 32.5417 27.3081 32.1338C28.3931 31.7121 29.3133 31.1479 30.2307 30.2307C31.1479 29.3133 31.7121 28.3931 32.1338 27.3081C32.5417 26.2586 32.8206 25.0592 32.9007 23.3029C32.981 21.543 33 20.9811 33 16.5C33 12.0189 32.981 11.457 32.9007 9.69707C32.8206 7.94084 32.5417 6.74139 32.1338 5.69187C31.7121 4.60685 31.1479 3.68669 30.2307 2.76934C29.3133 1.85205 28.3931 1.28786 27.3081 0.866261C26.2586 0.458347 25.0592 0.179396 23.3029 0.0992932C21.543 0.0189941 20.9811 0 16.5 0ZM16.5 2.97297C20.9057 2.97297 21.4276 2.9898 23.1674 3.06918C24.7762 3.14254 25.6498 3.41134 26.2312 3.6373C27.0014 3.93662 27.5511 4.29417 28.1284 4.87159C28.7058 5.44895 29.0634 5.99859 29.3627 6.76877C29.5887 7.35019 29.8575 8.22385 29.9308 9.83258C30.0102 11.5724 30.027 12.0943 30.027 16.5C30.027 20.9057 30.0102 21.4276 29.9308 23.1674C29.8575 24.7761 29.5887 25.6498 29.3627 26.2312C29.0634 27.0014 28.7058 27.5511 28.1284 28.1284C27.5511 28.7058 27.0014 29.0634 26.2312 29.3627C25.6498 29.5887 24.7762 29.8575 23.1674 29.9308C21.4278 30.0102 20.906 30.027 16.5 30.027C12.094 30.027 11.5723 30.0102 9.83259 29.9308C8.22385 29.8575 7.35019 29.5887 6.76878 29.3627C5.9986 29.0634 5.44895 28.7058 4.87159 28.1284C4.29424 27.5511 3.93663 27.0014 3.63731 26.2312C3.41134 25.6498 3.14254 24.7761 3.06919 23.1674C2.9898 21.4276 2.97297 20.9057 2.97297 16.5C2.97297 12.0943 2.9898 11.5724 3.06919 9.83258C3.14254 8.22385 3.41134 7.35019 3.63731 6.76877C3.93663 5.99859 4.29417 5.44895 4.87159 4.87159C5.44895 4.29417 5.9986 3.93662 6.76878 3.6373C7.35019 3.41134 8.22385 3.14254 9.83259 3.06918C11.5724 2.9898 12.0943 2.97297 16.5 2.97297Z" fill="url(#paint5_radial_11_4218)"/>
        <defs>
            <linearGradient id="paint0_linear_11_4218" x1="1.92545" y1="1.73491" x2="12.3301" y2="41.9812" gradientUnits="userSpaceOnUse">
                <stop stop-color="#4E60D3"/>
                <stop offset="0.142763" stop-color="#913BAF"/>
                <stop offset="0.761458" stop-color="#D52D88"/>
                <stop offset="1" stop-color="#F26D4F"/>
            </linearGradient>
            <radialGradient id="paint1_radial_11_4218" cx="0" cy="0" r="1" gradientUnits="userSpaceOnUse" gradientTransform="translate(9.99053 33) rotate(32.1601) scale(30.8202 22.1803)">
                <stop stop-color="#FED276"/>
                <stop offset="0.17024" stop-color="#FDBD61" stop-opacity="0.975006"/>
                <stop offset="0.454081" stop-color="#F6804D"/>
                <stop offset="1" stop-color="#E83D5C" stop-opacity="0.01"/>
            </radialGradient>
            <linearGradient id="paint2_linear_11_4218" x1="1.92545" y1="1.73491" x2="12.3301" y2="41.9812" gradientUnits="userSpaceOnUse">
                <stop stop-color="#4E60D3"/>
                <stop offset="0.142763" stop-color="#913BAF"/>
                <stop offset="0.761458" stop-color="#D52D88"/>
                <stop offset="1" stop-color="#F26D4F"/>
            </linearGradient>
            <radialGradient id="paint3_radial_11_4218" cx="0" cy="0" r="1" gradientUnits="userSpaceOnUse" gradientTransform="translate(9.99053 33) rotate(32.1601) scale(30.8202 22.1803)">
                <stop stop-color="#FED276"/>
                <stop offset="0.17024" stop-color="#FDBD61" stop-opacity="0.975006"/>
                <stop offset="0.454081" stop-color="#F6804D"/>
                <stop offset="1" stop-color="#E83D5C" stop-opacity="0.01"/>
            </radialGradient>
            <linearGradient id="paint4_linear_11_4218" x1="1.92545" y1="1.73491" x2="12.3301" y2="41.9812" gradientUnits="userSpaceOnUse">
                <stop stop-color="#4E60D3"/>
                <stop offset="0.142763" stop-color="#913BAF"/>
                <stop offset="0.761458" stop-color="#D52D88"/>
                <stop offset="1" stop-color="#F26D4F"/>
            </linearGradient>
            <radialGradient id="paint5_radial_11_4218" cx="0" cy="0" r="1" gradientUnits="userSpaceOnUse" gradientTransform="translate(9.99053 33) rotate(32.1601) scale(30.8202 22.1803)">
                <stop stop-color="#FED276"/>
                <stop offset="0.17024" stop-color="#FDBD61" stop-opacity="0.975006"/>
                <stop offset="0.454081" stop-color="#F6804D"/>
                <stop offset="1" stop-color="#E83D5C" stop-opacity="0.01"/>
            </radialGradient>
        </defs>
    </g>

    <g id='telegram'>
        <path d="M16.5118 33.0642C25.618 33.0642 33 25.6822 33 16.576C33 7.46989 25.618 0.0878906 16.5118 0.0878906C7.40568 0.0878906 0.0236816 7.46989 0.0236816 16.576C0.0236816 25.6822 7.40568 33.0642 16.5118 33.0642Z" fill="url(#paint0_linear_11_4220)"/>
        <path fill-rule="evenodd" clip-rule="evenodd" d="M7.48718 16.402C12.2938 14.3078 15.499 12.9272 17.1027 12.2602C21.6816 10.3557 22.6331 10.0248 23.2532 10.0139C23.3896 10.0115 23.6946 10.0453 23.8922 10.2056C24.059 10.3409 24.1049 10.5238 24.1268 10.6521C24.1488 10.7804 24.1761 11.0728 24.1544 11.3012C23.9063 13.9084 22.8326 20.2353 22.2864 23.1553C22.0552 24.3909 21.6001 24.8052 21.1596 24.8458C20.2021 24.9339 19.475 24.213 18.5476 23.6051C17.0964 22.6538 16.2766 22.0616 14.868 21.1334C13.2401 20.0606 14.2954 19.471 15.2231 18.5074C15.4659 18.2553 19.6847 14.418 19.7663 14.0699C19.7765 14.0263 19.786 13.8641 19.6896 13.7784C19.5932 13.6927 19.4509 13.722 19.3482 13.7453C19.2027 13.7783 16.8844 15.3106 12.3934 18.3421C11.7354 18.794 11.1394 19.0142 10.6054 19.0026C10.0166 18.9899 8.8842 18.6698 8.04234 18.3961C7.00977 18.0605 6.1891 17.883 6.26056 17.313C6.29779 17.0161 6.70666 16.7124 7.48718 16.402Z" fill="white"/>
        <defs>
            <linearGradient id="paint0_linear_11_4220" x1="16.5118" y1="0.0878906" x2="16.5118" y2="32.8196" gradientUnits="userSpaceOnUse">
                <stop stop-color="#2AABEE"/>
                <stop offset="1" stop-color="#229ED9"/>
            </linearGradient>
        </defs>
    </g>

    <g id = 'whatsapp'>
        <path d="M11.1896 8.82463C11.4732 8.83655 11.787 8.8502 12.0851 9.53081C12.2888 9.99609 12.6316 10.8635 12.9048 11.5548C13.1061 12.0642 13.2696 12.4779 13.3118 12.5646C13.4113 12.769 13.4776 13.0077 13.3449 13.2806C13.3251 13.3214 13.3067 13.3599 13.2892 13.3967C13.1895 13.6057 13.1162 13.7592 12.9474 13.9622C12.8812 14.0415 12.8128 14.127 12.7444 14.2124C12.6071 14.384 12.4697 14.5557 12.3504 14.6779C12.1508 14.8817 11.9435 15.1031 12.1757 15.5118C12.4079 15.921 13.2065 17.2589 14.3894 18.3421C15.6602 19.5059 16.7642 19.9982 17.3248 20.2481C17.4349 20.2972 17.524 20.337 17.5894 20.3706C17.9874 20.575 18.2195 20.541 18.4516 20.2678C18.6838 19.9953 19.446 19.0749 19.7113 18.6661C19.9766 18.257 20.2419 18.3251 20.6067 18.4613C20.9715 18.5976 22.9278 19.5865 23.3258 19.7909C23.4034 19.8307 23.4759 19.8667 23.5432 19.9C23.8209 20.0377 24.0084 20.1307 24.0885 20.2678C24.188 20.4388 24.188 21.2567 23.8564 22.211C23.5248 23.1654 21.9001 24.0858 21.1705 24.1539C21.1003 24.1605 21.0305 24.1689 20.9587 24.1776C20.2844 24.259 19.4334 24.3618 16.3954 23.1313C12.6573 21.6172 10.1926 17.865 9.68339 17.0899C9.64164 17.0263 9.61303 16.9827 9.59795 16.9621L9.59352 16.956C9.37895 16.6615 7.97312 14.7317 7.97312 12.735C7.97312 10.8527 8.87389 9.86609 9.28834 9.41214C9.31666 9.38111 9.34271 9.35258 9.36605 9.32642C9.73058 8.91741 10.1618 8.81506 10.427 8.81506C10.4416 8.81506 10.4561 8.81506 10.4707 8.81506C10.7212 8.81502 10.9705 8.81499 11.1896 8.82463Z" fill="url(#paint0_linear_11_4219)"/>
        <path fill-rule="evenodd" clip-rule="evenodd" d="M2.28113 24.519C0.867471 22.044 0.128514 19.239 0.128514 16.335C0.128514 7.326 7.29317 0 16.0643 0C20.3374 0 24.3213 1.716 27.3414 4.785C30.3293 7.887 32 11.979 32 16.368C32 25.377 24.8353 32.703 16.0643 32.703C13.3976 32.703 10.7631 32.043 8.4498 30.723L0 33L2.28113 24.519ZM4.8514 23.595L5.17269 24.09L3.82329 29.106L8.83534 27.753L9.31727 28.05C11.3414 29.304 13.6867 29.964 16.0643 29.964C23.3574 29.964 29.3012 23.859 29.3012 16.368C29.3012 12.738 27.9197 9.306 25.4137 6.732C22.9398 4.191 19.5984 2.772 16.0643 2.772C8.77108 2.772 2.82731 8.844 2.82731 16.368C2.82731 18.909 3.53414 21.417 4.8514 23.595Z" fill="url(#paint1_linear_11_4219)"/>
        <defs>
            <linearGradient id="paint0_linear_11_4219" x1="0" y1="16.5018" x2="32" y2="16.5018" gradientUnits="userSpaceOnUse">
                <stop stop-color="#20B038"/>
                <stop offset="1" stop-color="#60D66A"/>
            </linearGradient>
            <linearGradient id="paint1_linear_11_4219" x1="0" y1="16.5018" x2="32" y2="16.5018" gradientUnits="userSpaceOnUse">
                <stop stop-color="#20B038"/>
                <stop offset="1" stop-color="#60D66A"/>
            </linearGradient>
        </defs>
    </g>
</svg>
